<?xml version="1.0" encoding="UTF-8"?>
<svg id="Layer_2" data-name="Layer 2" xmlns="http://www.w3.org/2000/svg" xmlns:xlink="http://www.w3.org/1999/xlink" viewBox="0 0 1080 685">
  <defs>
    <style>
      .cls-1 {
        fill: url(#linear-gradient-2);
      }

      .cls-2 {
        fill: #5252ff;
      }

      .cls-3 {
        fill: url(#linear-gradient);
      }
    </style>
    <linearGradient id="linear-gradient" x1="693.63" y1="779.39" x2="333.83" y2="147.96" gradientUnits="userSpaceOnUse">
      <stop offset="0" stop-color="#5252ff"/>
      <stop offset="1" stop-color="#2effe6"/>
    </linearGradient>
    <linearGradient id="linear-gradient-2" x1="464.38" y1="715.78" x2="733.06" y2="264.25" xlink:href="#linear-gradient"/>
  </defs>
  <g id="Layer_1-2" data-name="Layer 1">
    <g>
      <path class="cls-3" d="M949.12,358.4c-4.62-85.84-75.91-154.24-162.88-154.24-1.81,0-3.63.03-5.45.09.59-6.03.89-12.08.89-18.14C781.68,83.49,698.19,0,595.57,0c-67.95,0-129.01,36.18-161.77,94.03-21.79-10.55-45.67-16.04-70.25-16.04-81.62,0-149.31,60.77-160.21,139.44-74.13-1.38-135.09,58.55-135.09,132.47,0,10.28,1.17,20.4,3.5,30.29C27.61,407.92,0,456.88,0,509.78c0,84.35,68.62,152.97,152.96,152.97h318.81l33.52-171.69-37.2-34.64,50.46-6.15,21.44-46.09,21.45,46.09,50.46,6.15-37.2,34.64,33.52,171.69h318.81c12.33,0,22.33-10,22.33-22.33,0-3.41-.79-6.63-2.15-9.52-3.58-7.57-11.25-12.81-20.18-12.81h-282.02l-21.72-111.25,89.32-83.14-121.13-14.77-51.48-110.63-51.48,110.63-121.12,14.77,89.31,83.14-21.72,111.25H152.96c-59.72,0-108.3-48.59-108.3-108.31,0-42.19,24.81-80.83,63.19-98.46l19.36-8.88-7.96-19.76c-4.21-10.46-6.35-21.49-6.35-32.78,0-48.43,39.4-87.83,87.83-87.83,6.24,0,12.54.68,18.72,2.02l27.58,5.99-.52-28.22-.06-2.12c0-64.56,52.52-117.08,117.08-117.08,24.13,0,47.32,7.31,67.06,21.14l23.11,16.19,10.45-26.21c21.58-54.13,73.16-89.11,131.4-89.11,78,0,141.45,63.45,141.45,141.45,0,12.89-1.78,25.77-5.28,38.28l-10.28,36.64,37-8.9c9.13-2.2,18.48-3.31,27.78-3.31,65.32,0,118.46,53.14,118.46,118.46,0,3.06-.15,6.34-.46,10.02l-2.02,24.19h24.91c59.67.05,108.2,48.61,108.2,108.29,0,25.1-8.78,49.56-24.73,68.88-5.68,6.89-6.48,16.14-2.91,23.71,1.36,2.89,3.3,5.56,5.93,7.73,9.51,7.85,23.59,6.5,31.44-3.01,22.53-27.31,34.94-61.86,34.94-97.31,0-76.85-56.96-140.64-130.87-151.38Z"/>
      <path class="cls-1" d="M821.04,595.94h-155.9l-15.51-79.41,81.66-76.02,89.74,155.44ZM430.36,516.52l-81.66-76.02-89.74,155.44h155.9l15.51-79.41ZM472.24,387.64l67.76-145.64,67.76,145.64,100.06,12.2-167.82-290.68-93.68,162.26-74.14,128.42,100.06-12.2Z"/>
      <polygon class="cls-2" points="968.75 640.42 915.96 595.83 915.96 685 968.75 640.42"/>
    </g>
  </g>
</svg>